<?xml version="1.0" encoding="UTF-8" standalone="no"?>
<svg
   xmlns:dc="http://purl.org/dc/elements/1.1/"
   xmlns:cc="http://creativecommons.org/ns#"
   xmlns:rdf="http://www.w3.org/1999/02/22-rdf-syntax-ns#"
   xmlns:svg="http://www.w3.org/2000/svg"
   xmlns="http://www.w3.org/2000/svg"
   viewBox="0 0 3542.6667 2666.6667"
   height="2666.6667"
   width="3542.6667"
   xml:space="preserve"
   id="svg2"
   version="1.1"><metadata
     id="metadata8"><rdf:RDF><cc:Work
         rdf:about=""><dc:format>image/svg+xml</dc:format><dc:type
           rdf:resource="http://purl.org/dc/dcmitype/StillImage" /></cc:Work></rdf:RDF></metadata><defs
     id="defs6" /><g
     transform="matrix(1.3333333,0,0,-1.3333333,0,2666.6667)"
     id="g10"><g
       transform="scale(0.1)"
       id="g12"><g
         transform="scale(1.63006)"
         id="g14"><path
           id="path16"
           style="fill:#ffffff;fill-opacity:1;fill-rule:nonzero;stroke:none"
           d="M 16300,0 H 0 V 12269.5 H 16300 V 0" /></g><g
         transform="scale(1.58929)"
         id="g18"><path
           id="path20"
           style="fill:#f2f9fd;fill-opacity:1;fill-rule:nonzero;stroke:none"
           d="m 15397.6,779.343 c -0.1,0 -0.1,0 -0.1,0 L 2148.07,801.177 c 0,0 -1071.58,1603.613 -101.52,2540.003 970.06,936.4 304.01,1364.57 186.12,1726.5 -107.61,330.33 -436.05,1147.81 127.57,1730.1 h 277.44 c 68.76,-96.27 193.44,-268.69 204.44,-268.69 10.3,0 -9.53,162.85 -23.52,268.69 h 278.1 c 74.54,0 134.98,60.64 134.98,135.44 v 373.15 c 521.93,325.75 697.41,947.5 744.57,1380.13 91.78,841.94 562.9,1591.3 1277.88,2000.5 452.74,259.1 1063.41,471.8 1885.61,558.3 0,0 274.02,38 672.12,38 418.8,0 975.03,-42 1494.88,-214.4 -10.51,-22.9 -23.53,-28.2 -48.38,-28.3 -75.38,-0.4 -150.7,-3.9 -233.63,-6.4 -7.8,-102.7 -15.42,-202.8 -23.09,-304.1 18.94,-3.6 29.82,-5.8 40.77,-7.6 67.39,-11.2 134.72,-23 202.36,-33 19.19,-2.8 25.54,-11.5 31.39,-29.5 3.21,-10 6.55,-20 9.95,-29.9 H 6217.53 c -9.85,0 -19.65,-0.3 -29.38,-0.8 -19.46,-1 -38.68,-2.9 -57.58,-5.8 -9.45,-1.5 -18.83,-3.2 -28.11,-5.1 -241.63,-49.6 -427.65,-252.3 -453.01,-502.7 -1.94,-19.3 -2.94,-38.8 -2.94,-58.6 V 2986.24 1373.07 c 0,-247.97 157.01,-459.075 376.7,-538.86 v 0 c 0.96,-0.378 1.97,-0.693 2.93,-1.005 10.89,-3.903 21.96,-7.425 33.16,-10.635 4.02,-1.133 8.04,-2.392 12.11,-3.461 4.26,-1.133 8.58,-2.138 12.88,-3.146 4.37,-1.069 8.74,-2.077 13.15,-3.021 4.15,-0.943 8.34,-1.759 12.53,-2.516 4.69,-0.944 9.4,-1.763 14.14,-2.579 4.02,-0.629 8.04,-1.261 12.09,-1.826 5.11,-0.754 10.26,-1.384 15.42,-2.013 3.75,-0.44 7.48,-0.88 11.26,-1.194 5.88,-0.568 11.81,-1.008 17.76,-1.387 3.11,-0.186 6.22,-0.44 9.36,-0.629 9.13,-0.44 18.29,-0.691 27.53,-0.691 h 4234.67 c 19.7,0 39.2,1.006 58.4,2.957 268.8,27.371 482.4,241.806 509.7,511.426 2,19.25 2.9,38.82 2.9,58.58 v 4838.07 c 90.8,1.2 181.9,10.07 274.5,26.12 13.8,153.85 27.7,307.76 39.9,443.39 132.4,58.86 256.2,110.65 376.6,169.47 14.5,7.09 26.2,10.56 36.8,10.56 14.8,0 27.6,-6.81 43.3,-20.05 93.4,-78.77 189.3,-154.63 283.3,-232.75 12.5,-10.39 23.5,-18.06 35.9,-18.06 7.7,0 16,3.02 25.6,10.28 125.6,95.15 241.6,199.59 334.1,328.71 20.6,28.78 15.9,46.9 -4.1,70.91 -80.6,96.66 -159.3,194.85 -240.3,291.17 -19.6,23.34 -24.5,39.43 -10.7,71.09 47.7,109.82 90.7,221.85 130.8,334.72 10.3,28.83 24.2,34.77 49.7,37.27 141.5,13.95 282.9,28.94 428,43.95 25.9,181.75 31.2,360.41 0.3,543.45 -157,14.13 -312.9,28.18 -462.1,41.61 -58.2,139.82 -114.5,275.18 -174.8,420.04 36.7,45.14 76.6,93.78 117.6,144.26 0.9,0.05 1.7,0.11 2.6,0.15 175.8,10.69 354,21.38 527.4,21.38 270,0 528.3,-25.87 748.2,-117.9 671.1,-280.93 324.4,-1232.53 727.6,-1480.71 C 16300,6127.33 15783.4,779.343 15397.6,779.343 M 12517,6297.92 c -397.7,0 -448.3,-527.98 -701.7,-731.72 -77.5,-62.23 -164,-112.94 -237.4,-180.14 -270.6,-247.98 -148.6,-707.05 99.8,-924.5 116.3,-101.75 277.5,-173.86 435.3,-173.86 76.2,0 151.5,16.81 220.8,55.19 110.9,61.6 195.1,163.97 255.1,276.09 85.2,159.13 140.1,342.74 200.7,512.37 64.4,180.52 118.4,368.47 126.4,561.2 6,144.97 -15.3,288.18 -79.9,423.14 -55.5,116.15 -193.1,182.07 -318.5,182.23 -0.2,0 -0.4,0 -0.6,0 m -1486.5,918.69 c -2.4,0 -4.8,0.02 -7.3,0.04 v 1227.28 407.56 c 2.5,0.02 4.9,0.03 7.4,0.03 206.8,0 413.6,-77.94 572.8,-234.3 322.1,-316.38 326.7,-833.94 10.3,-1156.01 v 0 c -160,-162.9 -371.6,-244.58 -583.2,-244.6 m -901.9,3413.49 h -519.2 c -47.01,104.4 -52.42,221.9 -17.94,328.7 192.6,-86.1 374.82,-194 537.14,-328.7" /></g><g
         transform="scale(1.15457)"
         id="g22"><path
           id="path24"
           style="fill:#f7cc7f;fill-opacity:1;fill-rule:nonzero;stroke:none"
           d="m 13328.1,14476.1 c -229,261.5 -202.6,659.3 58.9,888.3 v 0 c 261.6,229.1 659.3,202.7 888.3,-58.8 229.1,-261.6 202.8,-659.3 -58.8,-888.4 v 0 c -261.6,-229 -659.3,-202.7 -888.4,58.9 m -691.8,-360.3 256.2,-292.6 c 18.9,-7.3 34.5,4.3 73.1,32.7 69,50.8 138,101.5 208.8,149.8 11.2,7.6 34,7.9 46.7,1.7 75.5,-36.5 148.8,-77.6 224.7,-113.4 23.4,-11.1 33.7,-20.5 33.8,-47.9 0.2,-109.4 3.4,-218.9 5.5,-327.2 94.5,-32.3 340.2,-51.5 424.4,-32.2 16.7,103 35.4,207.9 50,313.4 4.5,32.9 14.8,44.6 48.6,53.2 78.4,19.9 155.2,47 231,75.5 30.8,11.5 51.3,15 77.2,-11.2 67.2,-67.8 138.4,-131.6 206.7,-198.3 18.4,-18 34.3,-22.3 53.9,-5.3 92.3,79.6 184.7,159.3 277,239 22.7,19.5 5.1,35.8 -5.5,50.8 -53.1,76 -105.9,152.3 -161.5,226.4 -21,27.8 -21,47.7 -3.3,78.2 47,80.7 88.9,164.5 136.1,253.3 108,2.5 227.2,5.3 349.7,8.2 33.8,138.4 41.6,277.4 27.7,422.3 -117.4,19.5 -234.9,39 -338.3,56.2 -37.6,105.1 -70.1,203.2 -108.3,299 -11.1,27.8 -7.1,41.6 11.8,61 66,67.2 129.7,136.5 195.2,204.1 14.1,14.7 22.5,26.6 9.5,46.8 -65.8,102 -139.3,197 -233.1,275.5 -21,17.5 -35.1,15 -54.7,1 -78.9,-56.3 -158.8,-111.1 -237.5,-167.7 -19,-13.7 -31.7,-16.5 -55.3,-4.2 -81.5,43 -165,82.6 -249.4,119.9 -21.6,9.5 -25.4,20.6 -25.8,40.2 -2.5,109.5 -5.9,219 -9,331.2 -138.1,30.5 -275,44.8 -417.3,31.7 -19.9,-119.8 -39.8,-238.7 -58.6,-352.5 -110.8,-36.6 -218,-72 -332.7,-109.9 -61,57.6 -130.7,124.4 -201.6,190.1 -58.1,53.9 -43.4,57.9 -112.8,9 -6.6,-4.7 -14.9,-6.9 -22.5,-10.3 -55,-48.1 -109.9,-96.3 -164.9,-144.4 -10.2,-12.9 -18.8,-27.8 -31.1,-38.3 -32,-27.2 -36.2,-51.1 -8.4,-87.4 58.2,-75.7 111.6,-155 165.1,-234 7,-10.4 8.3,-30.8 3,-42.3 -34.7,-74.9 -75.9,-147 -106.6,-223.4 -15,-37.4 -33,-45.8 -69.5,-46 -103.8,-0.5 -207.5,-5.3 -321.6,-8.7 -10.7,-141.4 -21.2,-279.2 -31.8,-418.7 26.1,-4.8 41.1,-7.9 56.1,-10.4 92.8,-15.4 185.5,-31.7 278.6,-45.4 26.4,-3.9 35.1,-15.9 43.2,-40.6 27.4,-85.1 60.3,-168.5 88.3,-253.4 4.4,-13.1 -0.8,-35.7 -10.3,-46.2 -51.5,-57.4 -106.2,-112 -158.9,-168.4 -42.7,-45.7 -58.4,-62.8 -51.6,-89.9" /></g><g
         transform="scale(1.25366)"
         id="g26"><path
           id="path28"
           style="fill:#f47458;fill-opacity:1;fill-rule:nonzero;stroke:none"
           d="m 13244.3,10911.1 c 401.2,408.3 1057.2,414.2 1465.6,13.1 408.2,-401.1 414,-1057.21 13,-1465.5 v 0 c -401.1,-408.29 -1057.2,-414.14 -1465.5,-13.05 v 0 c -408.3,401.08 -414.2,1057.15 -13.1,1465.45 v 0 m -676.7,1091.3 -448.8,-456.7 c -9.5,-32.1 11.4,-56 62.8,-115.9 91.8,-107.1 183.7,-214.2 271.7,-324.3 13.9,-17.4 17.1,-54.9 8.6,-76.5 -50.7,-128.4 -109.1,-253.8 -158.5,-382.7 -15.3,-40 -29.4,-58 -74.4,-61.5 -179.7,-13.8 -359,-32.7 -536.5,-49.5 -41.4,-159 -42.5,-564.8 -0.4,-700.59 171.1,-14.73 345.7,-32.44 520.6,-43.26 54.5,-3.38 75,-19.01 93.2,-73.41 42.4,-126.21 96.4,-248.92 152.6,-369.85 22.7,-48.98 31,-82.34 -8.8,-128.1 -103.2,-118.6 -199,-243.45 -300.2,-363.83 -27.2,-32.35 -32.2,-58.86 -2.1,-89 142.2,-141.82 284.5,-283.44 426.6,-425.22 35,-34.84 59.5,-3.92 82.8,15.19 118.1,96.62 236.9,192.67 351.6,293.18 43.1,37.73 75.7,40.46 128,15.03 138.3,-67.28 281,-125.55 432.7,-192.15 17.5,-176.93 36.7,-372.25 56.5,-573 231.5,-38.44 460.5,-34.06 696.7,6.78 17.5,195.04 35.1,390.16 50.5,562.1 167.9,74.61 324.9,140.28 477.5,214.84 44.1,21.56 67.4,16.75 101.5,-12.03 118.4,-99.87 240,-196.03 359.2,-295.07 25.7,-21.42 46.4,-33.73 78,-9.86 159.2,120.62 306.2,253.03 423.5,416.72 26.1,36.48 20.1,59.45 -5.2,89.89 -102.2,122.53 -202,247.02 -304.6,369.12 -24.9,29.59 -31.1,49.99 -13.6,90.12 60.5,139.23 115,281.24 165.8,424.33 13,36.55 30.7,44.08 63,47.25 179.4,17.68 358.6,36.68 542.5,55.71 33,230.41 39.6,456.91 0.4,688.91 -199,17.9 -396.6,35.8 -585.8,52.8 -73.7,177.2 -145.1,348.8 -221.5,532.5 87,107.1 188.2,229.8 287.2,354.2 81.3,102.1 89.7,78.6 0.9,186.4 -8.5,10.3 -13.3,23.7 -19.7,35.6 -85.9,84.3 -171.6,168.6 -257.5,252.9 -22.4,15.2 -47.9,27.4 -66.6,46.3 -48.6,49.2 -88.4,53.2 -144.6,2.9 -116.9,-104.8 -240.5,-202.2 -363.7,-299.8 -16.1,-12.7 -49.5,-17.4 -69,-10 -127.2,47.6 -250.7,106.4 -379.9,147.2 -63.2,20 -79.2,48.6 -84,108.6 -13.7,170.2 -34.4,339.8 -54.1,526.8 -233.3,0.1 -461,0.3 -691.2,0.4 -4.7,-43.4 -7.9,-68.3 -10.1,-93.3 -13.9,-154.3 -29.1,-308.4 -40.2,-462.9 -3.2,-43.9 -21.7,-59.7 -61.4,-75.9 -136.3,-55.6 -269,-119.9 -404.9,-176.4 -21.1,-8.7 -58.7,-2.9 -77.2,11.3 -100.6,77.5 -197,160.5 -296.1,240.1 -80.2,64.3 -110.2,87.9 -153.8,73.6" /></g><g
         transform="scale(1.07479)"
         id="g30"><path
           id="path32"
           style="fill:#355389;fill-opacity:1;fill-rule:nonzero;stroke:none"
           d="m 15743.1,15668.2 -1.9,0.7 c -16.9,6.1 -34.2,11.5 -51.6,16.5 -5.9,1.8 -11.9,3.5 -17.9,5.1 -6.2,1.7 -12.7,3.2 -19,4.7 -6.5,1.6 -12.9,3.1 -19.4,4.5 -6.2,1.3 -12.4,2.5 -18.5,3.7 -7,1.3 -14,2.6 -21,3.8 -5.9,0.9 -11.9,1.9 -17.8,2.7 -7.6,1.1 -15.2,2.1 -22.8,2.9 -5.6,0.7 -11.1,1.4 -16.7,1.9 -8.7,0.8 -17.5,1.4 -26.2,2 -4.7,0.3 -9.2,0.7 -13.9,0.9 -13.5,0.6 -27.1,1 -40.8,1 H 9193.83 c -14.57,0 -29.06,-0.3 -43.45,-1.1 -28.78,-1.4 -57.19,-4.3 -85.13,-8.6 -13.99,-2.2 -27.85,-4.7 -41.58,-7.5 -357.29,-73.3 -632.37,-373.1 -669.86,-743.4 -2.87,-28.5 -4.35,-57.4 -4.35,-86.6 V 4415.74 2030.35 c 0,-366.68 232.17,-678.83 557.03,-796.81 v 0 c 1.42,-0.56 2.9,-1.02 4.33,-1.48 16.11,-5.78 32.48,-10.98 49.03,-15.73 5.95,-1.68 11.89,-3.54 17.91,-5.12 6.31,-1.67 12.69,-3.16 19.05,-4.65 6.46,-1.58 12.93,-3.07 19.44,-4.47 6.14,-1.39 12.33,-2.6 18.53,-3.72 6.94,-1.39 13.9,-2.6 20.91,-3.81 5.94,-0.93 11.89,-1.87 17.88,-2.7 7.56,-1.12 15.16,-2.05 22.79,-2.98 5.55,-0.65 11.07,-1.3 16.65,-1.76 8.7,-0.84 17.48,-1.49 26.26,-2.05 4.61,-0.28 9.21,-0.65 13.85,-0.93 13.49,-0.65 27.05,-1.03 40.71,-1.03 h 6261.77 c 29.2,0 58,1.49 86.4,4.38 397.4,40.47 713.3,357.56 753.7,756.24 2.9,28.47 4.3,57.4 4.3,86.62 V 12486 14871.4 c 0,366.7 -232.1,678.9 -556.9,796.8" /></g><g
         transform="scale(1.0478)"
         id="g34"><path
           id="path36"
           style="fill:#eafcfc;fill-opacity:1;fill-rule:nonzero;stroke:none"
           d="M 16300,2398.06 H 8984.38 V 14939 H 16300 V 2398.06" /></g><path
         id="path38"
         style="fill:#c7eef1;fill-opacity:1;fill-rule:nonzero;stroke:none"
         d="m 13260.9,8411.8 c -1519.9,0 -2752,1232.1 -2752,2752.1 0,1519.9 1232.1,2752 2752,2752 1520,0 2752.1,-1232.1 2752.1,-2752 0,-1520 -1232.1,-2752.1 -2752.1,-2752.1 m 0,5175.8 c -1338.5,0 -2423.7,-1085.2 -2423.7,-2423.7 0,-1338.6 1085.2,-2423.8 2423.7,-2423.8 1338.6,0 2423.8,1085.2 2423.8,2423.8 0,1338.5 -1085.2,2423.7 -2423.8,2423.7" /><path
         id="path40"
         style="fill:#6782aa;fill-opacity:1;fill-rule:nonzero;stroke:none"
         d="m 14810.5,16066.1 h -3115.4 c -45.5,0 -82.4,36.9 -82.4,82.3 0,45.5 36.9,82.4 82.4,82.4 h 3115.4 c 45.4,0 82.3,-36.9 82.3,-82.4 0,-45.4 -36.9,-82.3 -82.3,-82.3" /><path
         id="path42"
         style="fill:#abe2e8;fill-opacity:1;fill-rule:nonzero;stroke:none"
         d="m 13260.9,8740.1 c -1338.5,0 -2423.7,1085.2 -2423.7,2423.8 0,1338.5 1085.2,2423.7 2423.7,2423.7 1338.6,0 2423.8,-1085.2 2423.8,-2423.7 0,-1338.6 -1085.2,-2423.8 -2423.8,-2423.8 m 0,4415.4 c -1099.9,0 -1991.6,-891.7 -1991.6,-1991.6 0,-1100 891.7,-1991.7 1991.6,-1991.7 1100,0 1991.7,891.7 1991.7,1991.7 0,1099.9 -891.7,1991.6 -1991.7,1991.6" /><path
         id="path44"
         style="fill:#95d9e1;fill-opacity:1;fill-rule:nonzero;stroke:none"
         d="m 13260.9,9172.2 c -1099.9,0 -1991.6,891.7 -1991.6,1991.7 0,1099.9 891.7,1991.6 1991.6,1991.6 1100,0 1991.7,-891.7 1991.7,-1991.6 0,-1100 -891.7,-1991.7 -1991.7,-1991.7" /><path
         id="path46"
         style="fill:#6782aa;fill-opacity:1;fill-rule:nonzero;stroke:none"
         d="m 13242.1,1501.8 c -207.9,0 -376.4,169.2 -376.4,377.8 0,208.6 168.5,377.7 376.4,377.7 207.9,0 376.5,-169.1 376.5,-377.7 0,-208.6 -168.6,-377.8 -376.5,-377.8" /><g
         transform="scale(1.0478)"
         id="g48"><path
           id="path50"
           style="fill:#c7eef1;fill-opacity:1;fill-rule:nonzero;stroke:none"
           d="M 16300,2398.06 H 8984.38 v 526.15 H 16300 v -526.15" /></g><g
         transform="scale(1.0478)"
         id="g52"><path
           id="path54"
           style="fill:#c7eef1;fill-opacity:1;fill-rule:nonzero;stroke:none"
           d="M 16300,14273.5 H 8984.38 V 14939 H 16300 v -665.5" /></g><path
         id="path56"
         style="fill:#13375b;fill-opacity:1;fill-rule:nonzero;stroke:none"
         d="m 7845.91,8219.8 26.87,-24.1 c 13.83,-12.4 34.64,-11.9 46.48,1.1 l 476.99,526.2 c 11.85,13.1 10.24,33.7 -3.58,46.1 l -26.88,24.2 c -13.82,12.4 -34.63,11.9 -46.47,-1.2 l -477,-526.1 c -11.84,-13.1 -10.23,-33.8 3.59,-46.2" /><path
         id="path58"
         style="fill:#f7a491;fill-opacity:1;fill-rule:nonzero;stroke:none"
         d="m 6228.75,8647.3 c 63.75,52 556.8,-165.1 550.55,-240.7 -6.26,-75.5 344.04,-808.1 344.04,-808.1 l 605.34,484.3 0.25,-0.2 c 5.35,17.6 62.74,205.9 65.53,239.6 2.92,35.4 105.21,97.2 152.73,88.1 47.5,-9.1 -40.63,-68.9 -46.42,-79.9 -15.75,-29.8 45.15,-41.1 45.15,-41.1 0,0 174.91,96.4 178.62,153 3.72,56.6 39.83,175.4 77.61,150.5 19.5,-12.8 19.32,-97 13.23,-137 11.23,45.4 27.14,96.6 42.63,101.7 28.3,9.3 42.37,-26.8 37.23,-44.6 -5.14,-17.7 -50.83,-210.3 -64.71,-232 -13.57,-21.2 -296.03,-249.5 -336.72,-299.1 0,0 -782.99,-898.1 -838.74,-921.6 -48.91,-20.6 -223.33,288.9 -388.11,494.3 -164.78,205.5 -637.44,930.2 -438.21,1092.8" /><path
         id="path60"
         style="fill:#f48c7f;fill-opacity:1;fill-rule:nonzero;stroke:none"
         d="m 4648.87,2043.2 c 0,0 -107.6,-105.3 -110.04,-144 -2.43,-38.7 -9.52,-452.8 34.4,-491.5 43.92,-38.6 172.94,-66.1 131.46,-109.6 -31.35,-32.8 -272.54,-25.8 -432.38,-17 -46.66,2.6 -105.18,376.2 -123.66,431.1 -26.84,79.7 -92.11,259.3 -67.71,314.9 11.89,27.1 68.77,82.7 148.93,134.7 84.3,54.6 164.96,176.3 164.96,176.3 l 254.04,-294.9" /><path
         id="path62"
         style="fill:#f7a491;fill-opacity:1;fill-rule:nonzero;stroke:none"
         d="m 5763.44,1797.9 -96.4,-273.6 c -7.16,-43.3 -35.35,-150.1 -35.35,-189.4 0,-147.7 663.73,125.4 514.97,190.8 -13.46,5.9 -55.7,53.2 -60.13,103.5 -6.82,77.4 55.91,174.6 55.91,174.6 l -379,-5.9" /><path
         id="path64"
         style="fill:#355389;fill-opacity:1;fill-rule:nonzero;stroke:none"
         d="m 6804.66,6880.2 c 0,0 48.39,-489.3 48.39,-496.6 0,-791.4 156.36,-2337.5 126.62,-2486.3 -72.54,-362.9 -853.31,-2214.4 -853.31,-2214.4 l -421.98,50.6 549.89,2216.8 -202.36,892.2 -286.34,1763.7 1039.09,274" /><path
         id="path66"
         style="fill:#13375b;fill-opacity:1;fill-rule:nonzero;stroke:none"
         d="M 5388.43,6447.4 5308.35,5983.7 5091.72,4075.2 4266.7,2209.8 c 0,0 116.05,-271.4 287.26,-309.5 l 1313.08,1915.1 815.66,2450.6 -28.64,544.4 -1265.63,-363" /><path
         id="path68"
         style="fill:#e25a44;fill-opacity:1;fill-rule:nonzero;stroke:none"
         d="m 6972.95,8045.2 -585.14,-60 c 0,0 -26.84,481.4 -26.84,711 0,278.5 23.64,637.3 57.16,629.6 94.1,-21.7 220.82,-73.8 296.26,-177.8 261.06,-359.9 258.56,-1102.8 258.56,-1102.8" /><path
         id="path70"
         style="fill:#f47458;fill-opacity:1;fill-rule:nonzero;stroke:none"
         d="m 6685.49,8745.3 c 12.25,-84.9 237.2,-2393.9 237.2,-2393.9 -1065.43,-516.3 -1653.33,-91.9 -1653.33,-91.9 0,0 34.86,1621.3 -6.92,1842 -27.65,146 -62.12,1116.2 32.18,1143.4 121.01,34.9 259.75,71.9 410.98,87.7 129.09,13.4 630.55,21.2 720.27,-9 0,0 208.08,-221.1 259.62,-578.3" /><path
         id="path72"
         style="fill:#13375b;fill-opacity:1;fill-rule:nonzero;stroke:none"
         d="m 4235.09,2164.4 c 0,0 247.98,-700.6 345.04,-734.4 25.77,-9 149.45,-31.8 172.78,-86.6 7.03,-16.6 0,-71.8 0,-71.8 h -516.87 c 0,0 -65.38,308.7 -91.22,444.3 0,0 -136.82,331.4 -121.62,361.5 15.2,30.1 211.89,87 211.89,87" /><path
         id="path74"
         style="fill:#13375b;fill-opacity:1;fill-rule:nonzero;stroke:none"
         d="m 5593.94,1286.2 76.01,240.9 c 0,0 159.62,-67.8 239.43,-56.5 79.81,11.3 235.64,56.5 235.64,56.5 318.57,-105.2 579.56,-156.3 532.08,-240.9 H 5593.94" /><path
         id="path76"
         style="fill:#f7a491;fill-opacity:1;fill-rule:nonzero;stroke:none"
         d="m 7055.07,7060.2 c 2.41,1 11.08,7.8 16.07,11.9 -18.94,226.2 -15.52,445.4 55.23,519.6 -1.7,3.5 -17.17,36.5 -33.32,70.7 -82,-63.7 -120.96,-232.7 -105.67,-507.1 1.06,-18.9 6.46,-33.3 10.81,-56.9 23.75,-26.2 45.34,-43.1 56.88,-38.2" /><path
         id="path78"
         style="fill:#f8a492;fill-opacity:1;fill-rule:nonzero;stroke:none"
         d="m 4214.14,6327 c -0.66,4.9 -0.75,9.9 -0.26,14.9 15.7,159.8 148.01,1502.6 170.29,1559.6 20.12,51.6 613.54,903.2 613.54,903.2 L 5289.38,8406 4718.67,7642.1 c -12.79,-48.5 -218.69,-954.9 -218.69,-954.9 0,0 -42.21,-165.2 -61.11,-264.2 8.62,-23.8 17.08,-46.3 24.58,-64.8 18.91,-39.5 41.22,-71.9 61.49,-99.2 25.51,-34.3 67.68,-109.3 72.88,-129.3 6.05,-23.3 16.94,-71.8 23.11,-101 6.17,-29.3 14.62,-63.3 16.03,-79.2 0.86,-9.7 10.79,-28.9 18.44,-42.6 11.39,-20.2 -8.05,-44.2 -30.05,-36.8 -20.74,6.9 -36.88,33.8 -46.83,50.6 -28.08,47.4 -43.06,133.9 -50.04,129.3 -6.99,-4.6 -31.59,-151.3 -35.48,-167.9 -3.89,-16.6 -33.42,-187 -50.08,-218.1 -16.65,-31.2 -38.7,-26 -44.54,-6.5 -5.04,16.8 18.39,255.2 18.39,255.2 0,0 2.92,30.4 -10.35,20.9 -13.28,-9.5 -34.97,-225.9 -44.21,-257.5 -9.23,-31.7 -30.27,-48.5 -48.13,-23.1 -21.72,31 15.64,260.6 15.64,260.6 0,0 4.18,28.8 -8.11,26.1 -12.28,-2.7 -27.67,-187.1 -37.23,-203.1 -9.57,-15.9 -33.69,-21.6 -45.2,5 -13.55,31.3 21.55,235.9 21.55,235.9 0,0 -1.73,16.3 -9.39,10.9 -7.66,-5.4 -31.98,-161.7 -47.83,-176.2 -13.31,-12.1 -24.4,-0.3 -24.4,-0.3 -29.09,19.9 15.51,168.5 15.06,242.5 -0.43,73.9 33.74,156.9 23.54,245 -0.64,5.5 -2.43,19.1 -3.57,27.6" /><path
         id="path80"
         style="fill:#f47458;fill-opacity:1;fill-rule:nonzero;stroke:none"
         d="M 4534.1,8265.3 5041,7923.8 c 0,0 285.69,426.6 439.06,578.5 192.11,190.2 -69.99,773 -193.76,740.1 -276.88,-73.8 -752.2,-977.1 -752.2,-977.1" /><path
         id="path82"
         style="fill:#f7a491;fill-opacity:1;fill-rule:nonzero;stroke:none"
         d="m 5742.85,9831.7 -75.82,-501.4 c 0,0 276.89,-597 442.19,-545.3 138.7,43.5 53.37,571.8 53.37,571.8 0,0 -75.6,283.7 -52.93,425.6 22.67,142 -366.81,49.3 -366.81,49.3" /><path
         id="path84"
         style="fill:#f47458;fill-opacity:1;fill-rule:nonzero;stroke:none"
         d="m 6109.66,9782.4 c 22.67,142 -366.81,49.3 -366.81,49.3 l -6.28,-41.5 c 11.39,-27.9 25.32,-51.7 42.23,-69.9 87,-94 222.98,-150.4 340.56,-154.7 -11.77,76.6 -18.99,158.6 -9.7,216.8" /><path
         id="path86"
         style="fill:#f7a491;fill-opacity:1;fill-rule:nonzero;stroke:none"
         d="m 5678.95,10541.1 c -11.01,4.1 -88.24,-571.1 58.32,-729.3 146.55,-158.2 432.09,-210 534.51,-85.4 113.29,137.8 107.6,756 -120.26,918.8 -227.85,162.7 -472.57,-104.1 -472.57,-104.1" /><path
         id="path88"
         style="fill:#184655;fill-opacity:1;fill-rule:nonzero;stroke:none"
         d="m 6064.79,10952.8 c -176.13,-36 -290.21,-144 -332.12,-190.1 -79.96,-9.4 -188.66,-53.8 -300.9,-240.3 -138.01,-229.2 -36.09,-483.3 124.57,-607.9 160.65,-124.6 158.42,-268.6 158.42,-268.6 l 25.39,74.5 c 18.74,56.4 26.39,116.2 20.12,175.4 -3.76,35.5 -11.33,73.9 -25.98,105.4 -38.64,83.3 83,138.6 117.11,207.8 26.26,53.3 27.53,175.3 68.91,263.4 l 49.41,67.3 c 0,0 114.01,89.1 225.54,63.9 111.54,-25.1 95.49,395.4 -130.47,349.2" /><path
         id="path90"
         style="fill:#f7a491;fill-opacity:1;fill-rule:nonzero;stroke:none"
         d="m 5843.9,10106.7 c 1.16,-70.2 -30.62,-127.6 -71,-128.3 -40.38,-0.7 -74.05,55.6 -75.21,125.8 -1.17,70.1 30.62,127.6 71,128.3 40.37,0.7 74.04,-55.7 75.21,-125.8" /><path
         id="path92"
         style="fill:#ffffff;fill-opacity:1;fill-rule:nonzero;stroke:none"
         d="m 6081.89,9944.5 220.91,11.5 c 0,0 -0.75,-84.4 -97.75,-92.3 -118.27,-9.6 -123.16,80.8 -123.16,80.8" /><g
         transform="scale(1.32844)"
         id="g94"><path
           id="path96"
           style="fill:#f7a491;fill-opacity:1;fill-rule:nonzero;stroke:none"
           d="m 15350.2,6027.51 c 0,0 320.3,-702.93 388.2,-833.61 68,-130.75 194.3,-533.48 200.1,-553.35 5.8,-19.95 -161.5,-244.88 -129.9,-256.32 31.6,-11.51 76.2,113.37 109.4,94.1 33.3,-19.27 112.1,-340.93 132.7,-327.75 38.6,24.69 -40.7,198.65 -20.5,206.7 20.3,8.13 66.1,-188.94 104.9,-187.66 38.7,1.28 -60.8,182.77 -49,196.47 11.7,13.7 116.1,-158.45 139.3,-126.91 12.6,17.16 -96.5,150.93 -73.1,159.66 23.3,8.73 122.4,-80.85 135.1,-59.7 12.6,21.16 -93,64.06 -121,128.2 -28,64.06 -81.1,96.43 -96.1,211 -14.9,114.49 -20.9,523.55 -123.5,738.91 -102.7,215.37 -328.2,691.79 -328.2,691.79 l -268.4,-81.53" /></g><g
         transform="scale(1.25993)"
         id="g98"><path
           id="path100"
           style="fill:#13375b;fill-opacity:1;fill-rule:nonzero;stroke:none"
           d="m 16292.4,7180.66 c 7.6,182.87 -19.2,363.51 -100.7,533.76 -70.1,146.51 -243.6,229.66 -401.8,229.86 -502.3,0.65 -566.2,-665.84 -885.9,-923 -97.7,-78.49 -207,-142.47 -299.4,-227.23 -341.4,-312.8 -187.6,-891.88 125.9,-1166.18 217.5,-190.33 559.4,-298.43 827.5,-149.69 139.9,77.7 246.2,206.83 321.8,348.27 107.5,200.73 176.7,432.33 253.1,646.31 81.3,227.71 149.5,464.79 159.5,707.9" /></g><g
         transform="scale(1.17144)"
         id="g102"><path
           id="path104"
           style="fill:#f7a491;fill-opacity:1;fill-rule:nonzero;stroke:none"
           d="m 15592.6,8488.56 c 24.9,18.1 88,-110.63 118.4,-109.35 30.3,1.28 -21,180.1 1.9,193.91 42,25.43 68.2,-192.46 88.2,-181.96 20.2,10.5 4.3,236.47 47.7,224.56 43.4,-11.91 -8,-236.09 18.6,-234.38 26.6,1.62 29.1,212.72 84.5,225.59 29.7,6.89 -50,-360.29 -23.2,-392.05 26.8,-31.76 140.7,85.02 169.8,62.06 28.9,-22.96 -223.3,-194.55 -227.2,-217.6 -3.9,-22.96 -56.1,-515.86 -49.3,-678.82 56.2,-3.16 374.2,-66.16 427,-67.95 -35,-103.12 51,-209.58 22.2,-313.81 -178.2,15.8 -708.3,56.17 -741.6,94.42 -101.3,116.52 84.3,836.15 127.1,962.32 42.8,126.34 0.9,178.67 3.1,256.1 2.4,77.34 -92.1,158.86 -67.2,176.96" /></g><g
         transform="scale(1.23347)"
         id="g106"><path
           id="path108"
           style="fill:#f48c7f;fill-opacity:1;fill-rule:nonzero;stroke:none"
           d="m 15593,1071.21 c 42.7,31.46 77.2,52.21 213.4,118.28 8.9,4.3 41.2,24.97 52.9,32.11 29.6,18.08 59.3,46.62 84.9,75.15 24.5,27.24 36.1,114.56 41.6,184.2 -14.1,155.5 -239.4,2649.61 -287,2919.66 -49,278.64 25.7,703.79 25.7,703.79 l 174,65.58 330.2,-1144.58 -26,-871.28 c 0,0 77.7,-251.16 87.5,-401.23 9.8,-150.06 -112.3,-1368.25 -112.3,-1368.25 v 0 c 0,-43.54 1.7,-82.94 6.6,-107.51 8.9,-45.56 58.8,-139.36 35.9,-182.25 -22.9,-42.88 -49.1,-53.59 -49.1,-53.59 l -593.3,-9.64 c -32.4,-0.49 -11,20.35 15,39.56" /></g><g
         transform="scale(1.31656)"
         id="g110"><path
           id="path112"
           style="fill:#f79c8d;fill-opacity:1;fill-rule:nonzero;stroke:none"
           d="m 15452.6,4866 c 0,0 193.1,-291.29 239.1,-532.3 45.9,-241 -33.8,-981.72 54.7,-1297.62 47.8,-170.97 229.2,-434.99 256.8,-655.94 27.5,-220.96 123.5,-858.6 123.5,-858.6 v 0 c 14.6,-67 37.3,-149.79 66.8,-188.3 18.1,-23.54 51.1,-53.32 72.8,-95.93 33.7,-66.31 15,-164.97 -9.8,-219.28 -12.8,-27.953 0.8,-27.876 -28.2,-36.839 -86.1,-26.659 -177.7,18.229 -214.4,100.869 -20.5,46.18 -38.5,107.78 -42,185.4 -3.9,82.27 -16.7,147.59 -30.5,195.97 l -617,1513.71 -446.8,1306.43 -114.5,672.82 689.5,-90.39" /></g><g
         transform="scale(1.31789)"
         id="g114"><path
           id="path116"
           style="fill:#13375b;fill-opacity:1;fill-rule:nonzero;stroke:none"
           d="m 15981.1,1124.37 c 133.4,-24.35 222.2,53.88 268.4,112.46 34,-66.4 50.5,-165.34 25.5,-219.82 -22,-48.037 -86.2,-46.67 -136.7,-48.567 -53.4,-1.974 -94.8,27.773 -121.3,74.437 -12.4,21.78 -25.2,48.94 -35.9,81.49" /></g><g
         transform="scale(1.22864)"
         id="g118"><path
           id="path120"
           style="fill:#13375b;fill-opacity:1;fill-rule:nonzero;stroke:none"
           d="m 15921.7,1226.4 c 157.6,-40.45 274,-12.94 339.2,13.35 16.8,-47.7 39.1,-107.6 27.2,-142.11 -14.4,-42.24 -35,-51.85 -53.2,-52.26 -143.9,-3.82 -527.1,-8.95 -636.9,-10.41 -15.3,-0.16 -23.8,17.74 -13.9,29.54 27.3,32.56 325.9,154.73 337.6,161.89" /></g><g
         transform="scale(1.27377)"
         id="g122"><path
           id="path124"
           style="fill:#13375b;fill-opacity:1;fill-rule:nonzero;stroke:none"
           d="m 15842.5,3106.69 c -12,-0.79 -24,-1.57 -36.1,-2.36 l -1.9,-0.07 c -11.7,-0.71 -23.7,-1.42 -35.6,-1.96 -0.7,-0.08 -1.4,-0.08 -2.2,-0.16 -11.9,-0.63 -23.9,-1.18 -35.9,-1.73 h -1.9 c -12.1,-0.55 -24.4,-1.02 -36.6,-1.41 -136.2,-4.48 -304.5,-2.75 -412.4,15.62 -55.1,550.89 -75.5,1053.72 -96,1164.97 -49.3,269.91 43.1,695.89 43.1,695.89 l -7.4,101.19 23.7,64.54 741,-93.5 c 0,0 207.5,-301 257,-550.1 49.4,-249.11 -36.3,-1014.79 58.7,-1341.22 0,0 -211.6,-32.98 -457.5,-49.7" /></g><g
         transform="scale(1.23708)"
         id="g126"><path
           id="path128"
           style="fill:#eab054;fill-opacity:1;fill-rule:nonzero;stroke:none"
           d="m 15273.1,6966.97 c 0,0 571.3,59.74 739.9,3.4 168.6,-56.42 287,-297.31 197,-432.15 -90,-134.75 -900.8,41.79 -900.8,41.79 l -36.1,386.96" /></g><g
         transform="scale(1.27404)"
         id="g130"><path
           id="path132"
           style="fill:#f7cc7f;fill-opacity:1;fill-rule:nonzero;stroke:none"
           d="m 15808.4,6816.44 c 0,0 274.4,17.04 383,-97.95 108.6,-114.99 -240.8,-1024.62 -260.5,-1170.93 -19.8,-146.3 100.6,-535.46 100.6,-535.46 0,0 -644.7,-126.06 -828.9,-7.54 0,0 -33.8,1062.46 -14,1167 19.7,104.55 198.2,519.46 237.7,561.29 39.5,41.84 382.1,83.59 382.1,83.59" /></g><g
         transform="scale(1.23892)"
         id="g134"><path
           id="path136"
           style="fill:#f7a491;fill-opacity:1;fill-rule:nonzero;stroke:none"
           d="m 16162.6,7376.1 c 0,0 1.5,-8.07 4.1,-21.87 12.6,-65.87 61,-284.61 93.8,-344.74 39.5,-72.64 -135.5,-304.38 -303.9,-276.05 -50.1,8.4 42.4,212.93 38,234.56 -8.6,41.49 -20.1,97.99 -31.9,156.03 -6.7,32.69 -13.4,65.94 -19.8,97.1 -18,88.62 -32.7,161.11 -32.7,161.11 l 252.4,-6.14" /></g><g
         transform="scale(1.2288)"
         id="g138"><path
           id="path140"
           style="fill:#845659;fill-opacity:1;fill-rule:nonzero;stroke:none"
           d="m 16300,7413.55 c -0.1,0.41 -0.2,0.82 -0.2,1.22 0,-0.4 0.1,-0.81 0.2,-1.22" /></g><g
         transform="scale(1.22937)"
         id="g142"><path
           id="path144"
           style="fill:#f58c74;fill-opacity:1;fill-rule:nonzero;stroke:none"
           d="m 16086.6,7179.95 c -6.6,32.78 -13.5,66.05 -19.8,97.29 v 0 c -18.1,89.31 -33,162.35 -33,162.35 l 254.4,-6.18 c 0,0 1.5,-8.13 4.1,-22.04 v 0 c 0.1,-0.41 0.1,-0.81 0.2,-1.22 2,-10.09 4.5,-23.1 7.5,-38.15 -17.7,-48.89 -47.1,-94.76 -92,-132.92 -41.1,-34.97 -82.2,-53.52 -121.4,-59.13" /></g><g
         transform="scale(1.24205)"
         id="g146"><path
           id="path148"
           style="fill:#f7a491;fill-opacity:1;fill-rule:nonzero;stroke:none"
           d="m 15952.4,7913.54 c 0,0 118.7,13.28 193.1,-80.2 74.3,-93.47 154.5,-382.51 -30.3,-539.67 -184.7,-157.16 -367.2,20.78 -394.3,209.34 -27.1,188.63 -37.5,417.29 231.5,410.53" /></g><g
         transform="scale(1.20195)"
         id="g150"><path
           id="path152"
           style="fill:#f7a491;fill-opacity:1;fill-rule:nonzero;stroke:none"
           d="m 16188.9,7756.22 c 22.7,-43.09 61,-66.89 85.4,-53.24 24.5,13.64 25.7,59.57 2.9,102.66 -22.7,43.02 -61,66.9 -85.4,53.25 -24.4,-13.64 -25.7,-59.65 -2.9,-102.67" /></g><g
         transform="scale(1.24505)"
         id="g154"><path
           id="path156"
           style="fill:#13375b;fill-opacity:1;fill-rule:nonzero;stroke:none"
           d="m 15900.7,7925.23 c 0,0 158.2,-274.21 271.4,-286.82 113,-12.69 127.9,-158.38 127.9,-158.38 0,0 -40.5,335.73 -152.4,400.46 -112,64.74 -246.9,44.74 -246.9,44.74" /></g><g
         transform="scale(1.24257)"
         id="g158"><path
           id="path160"
           style="fill:#f7a491;fill-opacity:1;fill-rule:nonzero;stroke:none"
           d="m 16174.5,7584.6 c -9.1,-48.85 9.4,-93.6 41.5,-99.96 32.1,-6.43 65.6,27.93 74.7,76.7 9.3,48.85 -9.3,93.6 -41.3,99.95 -32.1,6.44 -65.6,-27.92 -74.9,-76.69" /></g><g
         transform="scale(1.22185)"
         id="g162"><path
           id="path164"
           style="fill:#ffffff;fill-opacity:1;fill-rule:nonzero;stroke:none"
           d="m 16290.6,7584.1 -164.7,-23.66 c 0,0 12.8,-61.95 85.5,-53.69 88.6,10.15 79.2,77.35 79.2,77.35" /></g><g
         transform="scale(1.2934)"
         id="g166"><path
           id="path168"
           style="fill:#f7cc7f;fill-opacity:1;fill-rule:nonzero;stroke:none"
           d="m 15937.2,5680.2 c 0,0 -305.3,456.78 -332.7,624.56 -27.4,167.77 123.6,375.44 277.8,359.35 154.1,-16.07 417.7,-780.26 417.7,-780.26 l -362.8,-203.65" /></g><path
         id="path170"
         style="fill:#eafcfc;fill-opacity:1;fill-rule:nonzero;stroke:none"
         d="m 12819.2,11399 c 76.9,0 148.5,0 220,0 11.8,0 25,-3.3 34.9,1 12.7,5.6 22.7,17.3 33.9,26.3 -11.4,8.8 -22.6,24.6 -34.4,25.1 -65.9,2.5 -132,1.3 -198,1.3 -17.3,0 -34.5,0 -54.1,0 0,49.2 0,93.8 0,144.2 76.3,0 150.6,-0.6 225,0.4 23.1,0.3 58.7,-9.6 59.6,26 0.9,37.5 -35.2,26.4 -58,26.7 -74.5,1.1 -149.1,0.4 -226.3,0.4 0,49.3 0,94.1 0,145.5 74.2,0 148.5,-0.8 222.7,0.5 23.9,0.4 63,-12.3 61.8,27.3 -1.1,38.1 -39.8,24.9 -63.9,25.4 -72.9,1.3 -145.8,0.5 -220.8,0.5 0,49.7 0,94.4 0,144.8 72.5,0 142.5,0 212.5,0 13.2,0 27.6,-2.9 39.2,1.5 13,4.9 23.3,16.6 34.8,25.3 -11.4,8.8 -22.5,24.8 -34.3,25.3 -63,2.7 -126.1,1.5 -189.2,1.7 -15.9,0 -31.8,0 -47.8,0 10.6,167.7 201.9,328.3 401.8,341.1 207,13.4 410,-138.2 448.6,-341.1 -66.3,0 -131.5,0 -196.7,-0.1 -16.1,0 -33.2,2.6 -48,-1.9 -11.5,-3.6 -20.1,-16.5 -30,-25.3 10.2,-8.6 19.7,-23.5 30.6,-24.6 34.9,-3.4 70.3,-1.8 105.5,-1.9 48.3,-0.1 96.6,0 148.9,0 0,-48.6 0,-94.3 0,-144.8 -69.3,0 -137.9,0 -206.5,0 -11.7,0 -24.6,3.1 -34.9,-0.8 -15.6,-5.9 -29.3,-16.7 -43.8,-25.5 14.1,-9.1 27.9,-25.5 42.3,-26.1 65.9,-2.8 132,-1.3 198,-1.3 14.4,0 28.8,0 46.1,0 0,-48.6 0,-93.3 0,-145.5 -69.5,0 -139.3,0 -209,0 -14.7,0 -30.6,3.6 -43.7,-1 -12.6,-4.5 -22.2,-17.5 -33.1,-26.7 10.4,-8.3 20.2,-22.7 31.2,-23.8 34.9,-3.3 70.3,-1.8 105.5,-1.9 48.3,-0.1 96.7,0 148.5,0 0,-47.5 0,-92.3 0,-144.3 -60.8,0 -123.2,0 -185.6,0 -22,0 -44.7,3 -65.8,-1.4 -12.6,-2.5 -22.8,-16.7 -34,-25.6 11.4,-8.8 22.5,-24.9 34.2,-25.3 67.4,-2.5 134.9,-1.3 202.4,-1.4 15.9,0 31.7,0 51.8,0 0,-111 1.8,-217.7 -0.6,-324.3 -1.8,-78.7 1.6,-159.8 -16.1,-235.5 -38.5,-164.4 -146.5,-272.5 -309.4,-316.5 -161.1,-43.7 -306,-4 -425.4,113 -86.4,84.7 -130.6,189.6 -130.4,311.9 0.2,148.2 0,296.3 0,451.4" /><path
         id="path172"
         style="fill:#eafcfc;fill-opacity:1;fill-rule:nonzero;stroke:none"
         d="m 13006.6,10203.1 c 50.6,-17.5 103.6,-28.2 155.3,-42 0,-184.4 0,-547.7 0,-729.9 h 196.2 c 0,183.2 0,547 0,733.1 24.5,4.8 44.9,7.8 64.8,12.8 309.8,78.2 510.9,268.3 594.2,578.9 41,152.9 20.9,309.4 23.9,464.3 1.2,61.8 -37.8,101.3 -91.8,101.5 -55.1,0.1 -90.9,-37.4 -92.1,-100.4 -1.3,-66 -0.9,-132 0.7,-197.9 3.9,-160.7 -23.1,-311.6 -124.5,-443.6 -148.7,-193.7 -403.8,-279.7 -636.6,-211.3 -239.7,70.4 -412.2,279.2 -428,524.8 -6.4,99.4 -2.6,199.4 -4.5,299.2 -0.5,24.6 -0.6,50.7 -8.3,73.5 -13.6,40.3 -56.3,61.3 -99.6,54.7 -43.5,-6.6 -75.8,-43.2 -76.6,-93.7 -1.6,-96.8 -1.4,-193.7 -0.4,-290.5 3.5,-333.3 212.6,-624.9 527.3,-733.5" /><g
         transform="scale(1.19819)"
         id="g174"><path
           id="path176"
           style="fill:#96d9c9;fill-opacity:1;fill-rule:nonzero;stroke:none"
           d="m 15287.8,13616.5 c -19.4,172.7 105,328.4 277.7,347.7 172.7,19.4 328.3,-104.9 347.7,-277.6 v 0 c 19.3,-172.7 -104.9,-328.4 -277.6,-347.7 -172.7,-19.4 -328.4,104.9 -347.8,277.6 z m -386.7,49.6 21.7,-193.2 c 5.7,-8.4 15.4,-8.1 39.3,-7.4 42.8,1.1 85.6,2.2 128.4,1.9 6.8,-0.1 16.2,-6.5 19.7,-12.7 20.5,-36.5 38.9,-74.3 59.8,-110.6 6.5,-11.3 8.1,-18.1 0.2,-29.3 -31.1,-45 -61,-90.8 -91,-135.8 29.5,-40.3 124.9,-118.3 164.9,-134.3 36.3,37.4 73.8,75.2 109.9,114.3 11.3,12.2 18.9,14 35.1,7.9 37.9,-14.2 77.1,-25 116.4,-34.9 15.9,-4 25.3,-8.5 28.5,-26.6 8.2,-47 19.2,-93.5 28.2,-140.4 2.4,-12.6 7.7,-18.9 20.6,-17.5 60.6,6.3 121.2,12.7 181.9,19 14.8,1.6 12.3,13.3 12.3,22.4 -0.2,46.4 -0.1,92.7 -1.8,139 -0.6,17.4 5,25.6 21,33 42.4,19.7 83.4,42.2 128.2,65.2 44.9,-29.8 94.7,-62.7 145.8,-96.5 53.4,47.2 96.2,102 131.8,165.4 -42.6,41.5 -85.2,83.1 -122.7,119.6 14.6,53.9 29.1,103.4 40.8,153.6 3.4,14.6 9,19.1 22.2,21.7 46.3,8.7 92.2,19 138.3,28.1 10.1,1.9 16.9,4.4 17.3,16.4 2.1,60.7 -0.9,120.6 -17,179.6 -3.6,13.2 -10.2,16.2 -22.2,16 -48.4,-0.6 -96.8,-0.2 -145.3,-1 -11.7,-0.2 -17.7,2.2 -23.8,14 -21.3,40.9 -44.2,81 -68.2,120.4 -6.2,10 -4.5,15.6 0.9,23.8 30.2,45.7 60,91.6 90.8,138.5 -48,51.9 -100,96.9 -162.2,132.1 -42.3,-43.5 -84.4,-86.6 -124.7,-127.9 -55.8,16.6 -109.9,32.6 -167.8,49.8 -8.6,41 -18.1,88.3 -28.5,135.5 -8.4,38.7 -1.3,36.2 -43.7,35.9 -4,0 -8.1,1.4 -12.1,2.2 -36.3,-4.1 -72.6,-8.2 -108.9,-12.2 -7.9,-2.4 -15.6,-6.1 -23.7,-6.9 -20.9,-2 -29.5,-10.6 -28.4,-33.5 2.2,-47.6 1.6,-95.4 1,-143.1 -0.1,-6.2 -5.4,-15 -10.9,-18.2 -35.6,-20.8 -73.1,-38.6 -107.5,-61.2 -16.7,-11.1 -26.6,-9.4 -41.6,0.9 -42.7,29.4 -86.6,57.1 -134.5,88.2 -44.7,-54.9 -88.3,-108.5 -132.5,-162.7 9.4,-9.5 14.6,-15 20.1,-20.3 33.7,-32.8 67,-65.9 101.3,-98.1 9.8,-9.2 10,-16.6 6.1,-29 -13,-42.8 -23.3,-86.3 -35.9,-129.2 -2,-6.6 -10.6,-14.4 -17.5,-16 -37.5,-8.9 -75.5,-15.7 -113.2,-23.8 -30.6,-6.5 -41.9,-9.1 -46.9,-22.1" /></g><g
         transform="scale(1.11929)"
         id="g178"><path
           id="path180"
           style="fill:#50bfa5;fill-opacity:1;fill-rule:nonzero;stroke:none"
           d="m 6092.81,15600.9 79.99,-500.6 267.43,352 887.16,847.7 -787.69,-316.1 c 0,0 -382.61,-223.5 -398.88,-250.4 -16.3,-26.9 -48.01,-132.6 -48.01,-132.6" /></g><g
         transform="scale(1.11929)"
         id="g182"><path
           id="path184"
           style="fill:#96d9c9;fill-opacity:1;fill-rule:nonzero;stroke:none"
           d="m 5647.31,15784.6 1680.08,515.4 -1234.58,-699.1 -445.5,183.7" /></g><g
         transform="scale(1.11929)"
         id="g186"><path
           id="path188"
           style="fill:#96d9c9;fill-opacity:1;fill-rule:nonzero;stroke:none"
           d="m 6778.84,15278.2 -547.07,222.5 1095.62,799.3 -548.55,-1021.8" /></g><g
         transform="scale(1.03507)"
         id="g190"><path
           id="path192"
           style="fill:#9bc1f9;fill-opacity:1;fill-rule:nonzero;stroke:none"
           d="m 5758.6,16051.2 c 39.79,90 92.78,173.7 157.48,248.8 l 33.9,-29.2 c -61.83,-71.8 -112.44,-151.7 -150.45,-237.7 z m -473.28,-316.1 c 43.26,28.8 122.53,79.4 167.48,95.2 34.9,12.2 67.23,22.3 98.84,30.7 l 11.5,-43.2 c -30.48,-8.1 -61.72,-17.9 -95.51,-29.7 -29.47,-10.4 -86.89,-43.3 -157.53,-90.2 z m 560.9,104.3 -6.23,1 6.64,44.3 6.76,-1.1 c 101.27,-16.4 195.53,-65.8 258.66,-135.4 l -33.16,-30.1 c -56.43,62.3 -141.24,106.5 -232.67,121.3 z m -140.71,-279.9 c -12.39,41.2 -19.81,85.1 -22.02,130.6 -1.19,24.5 -0.89,49.9 0.88,75.4 l 44.64,-3 c -1.64,-23.9 -1.93,-47.5 -0.82,-70.2 2.04,-41.9 8.82,-82.2 20.17,-119.8 8.05,-26.7 18.94,-52.8 32.38,-77.6 l -39.35,-21.3 c -14.88,27.4 -26.95,56.3 -35.88,85.9 z m -821.9,-245 c 51.91,80.1 110.43,158.8 173.96,234.1 l 34.2,-28.9 c -62.33,-73.8 -119.72,-151 -170.61,-229.5 z m 1093.09,-38.3 c -2.95,0.8 -5.91,1.7 -8.85,2.6 l 13.15,42.8 c 2.57,-0.8 5.14,-1.6 7.3,-2.2 0,0 1.38,-0.2 4.72,-0.1 24.97,1.3 86.37,19.6 114.66,50.4 23.78,25.9 39.21,59.4 45.87,99.4 l 44.14,-7.3 c -7.98,-48.1 -27.71,-90.4 -57.05,-122.3 -39.23,-42.8 -114.09,-63.3 -145.45,-64.9 -7.41,-0.3 -13.47,0.2 -18.49,1.6 z m -1334.11,-491.8 c 24.12,91 57.66,183.5 99.72,274.8 l 40.63,-18.8 c -40.96,-88.9 -73.63,-178.9 -97.09,-267.5 z m -32.45,-544.3 c -6.88,43.1 -11.45,87.3 -13.6,131.5 -1.98,40.6 -1.93,82.2 0.13,123.4 l 44.7,-2.2 c -2,-39.8 -2.03,-79.9 -0.13,-119.1 2.07,-42.5 6.48,-85.1 13.1,-126.6 1.93,-12.2 4.08,-24.3 6.41,-36.4 l -43.95,-8.5 c -2.45,12.8 -4.69,25.6 -6.66,37.9" /></g><g
         transform="scale(1.05168)"
         id="g194"><path
           id="path196"
           style="fill:#9bc1f9;fill-opacity:1;fill-rule:nonzero;stroke:none"
           d="m 6065.82,16194.3 c 40.74,25.5 83.04,47.4 125.73,65 l -16.8,40.7 c -44.96,-18.6 -89.46,-41.5 -132.28,-68.3 l 23.35,-37.4" /></g><path
         id="path198"
         style="fill:#c7eef1;fill-opacity:1;fill-rule:nonzero;stroke:none"
         d="m 15159.9,4137.9 h -3840.3 c -248.4,0 -449.8,201.4 -449.8,449.8 0,248.4 201.4,449.8 449.8,449.8 h 3840.3 c 248.4,0 449.8,-201.4 449.8,-449.8 0,-248.4 -201.4,-449.8 -449.8,-449.8" /><path
         id="path200"
         style="fill:#93d8e0;fill-opacity:1;fill-rule:nonzero;stroke:none"
         d="m 10186.5,6353 h 153.5 v 789.102 h -153.5 z" /><path
         id="path202"
         style="fill:#93d8e0;fill-opacity:1;fill-rule:nonzero;stroke:none"
         d="m 10463,6451.7 h 153.5 v 591.801 H 10463 Z" /><path
         id="path204"
         style="fill:#93d8e0;fill-opacity:1;fill-rule:nonzero;stroke:none"
         d="m 10739.5,6353 h 153.5 v 789.102 h -153.5 z" /><path
         id="path206"
         style="fill:#93d8e0;fill-opacity:1;fill-rule:nonzero;stroke:none"
         d="m 11016,6013.9 h 153.5 V 7505.5 H 11016 Z" /><path
         id="path208"
         style="fill:#93d8e0;fill-opacity:1;fill-rule:nonzero;stroke:none"
         d="m 11292.5,6202.5 h 153.5 v 1090.1 h -153.5 z" /><path
         id="path210"
         style="fill:#93d8e0;fill-opacity:1;fill-rule:nonzero;stroke:none"
         d="m 13791.4,6013.9 h 153.5 v 1491.6 h -153.5 z" /><path
         id="path212"
         style="fill:#93d8e0;fill-opacity:1;fill-rule:nonzero;stroke:none"
         d="m 14067.9,6280.4 h 153.5 v 934.398 h -153.5 z" /><path
         id="path214"
         style="fill:#93d8e0;fill-opacity:1;fill-rule:nonzero;stroke:none"
         d="m 14325.2,6529.5 h 153.5 v 436.102 h -153.5 z" /><path
         id="path216"
         style="fill:#93d8e0;fill-opacity:1;fill-rule:nonzero;stroke:none"
         d="m 14574.2,6399.8 h 153.5 v 695.602 h -153.5 z" /><path
         id="path218"
         style="fill:#93d8e0;fill-opacity:1;fill-rule:nonzero;stroke:none"
         d="m 14828.7,6033.1 h 153.5 V 7462 h -153.5 z" /><path
         id="path220"
         style="fill:#93d8e0;fill-opacity:1;fill-rule:nonzero;stroke:none"
         d="m 15091,6451.7 h 153.5 v 591.801 H 15091 Z" /><path
         id="path222"
         style="fill:#93d8e0;fill-opacity:1;fill-rule:nonzero;stroke:none"
         d="m 15362.8,6280.4 h 153.5 v 934.398 h -153.5 z" /><path
         id="path224"
         style="fill:#93d8e0;fill-opacity:1;fill-rule:nonzero;stroke:none"
         d="m 15615.8,5989.7 h 153.398 V 7505.5 H 15615.8 Z" /><path
         id="path226"
         style="fill:#93d8e0;fill-opacity:1;fill-rule:nonzero;stroke:none"
         d="m 15864.4,6327.1 h 153.504 v 887.699 H 15864.4 Z" /><path
         id="path228"
         style="fill:#93d8e0;fill-opacity:1;fill-rule:nonzero;stroke:none"
         d="m 16123.9,6544 h 153.5 v 453.902 h -153.5 z" /><g
         transform="scale(1.014)"
         id="g230"><path
           id="path232"
           style="fill:#93d8e0;fill-opacity:1;fill-rule:nonzero;stroke:none"
           d="m 16300,6545.17 h -151.3 v 264.6 h 151.3 v -264.6" /></g><path
         id="path234"
         style="fill:#93d8e0;fill-opacity:1;fill-rule:nonzero;stroke:none"
         d="m 9922.24,6576.3 h 153.457 v 389.301 H 9922.24 Z" /><path
         id="path236"
         style="fill:#93d8e0;fill-opacity:1;fill-rule:nonzero;stroke:none"
         d="m 12659.2,6013.9 h 153.5 v 1491.6 h -153.5 z" /><path
         id="path238"
         style="fill:#93d8e0;fill-opacity:1;fill-rule:nonzero;stroke:none"
         d="m 12935.7,6202.5 h 153.5 v 1090.1 h -153.5 z" /><path
         id="path240"
         style="fill:#93d8e0;fill-opacity:1;fill-rule:nonzero;stroke:none"
         d="m 11569,6451.7 h 153.5 v 591.801 H 11569 Z" /><path
         id="path242"
         style="fill:#93d8e0;fill-opacity:1;fill-rule:nonzero;stroke:none"
         d="m 11845.5,6529.5 h 153.5 v 436.102 h -153.5 z" /><path
         id="path244"
         style="fill:#93d8e0;fill-opacity:1;fill-rule:nonzero;stroke:none"
         d="m 13234.8,6451.7 h 153.5 v 591.801 h -153.5 z" /><path
         id="path246"
         style="fill:#93d8e0;fill-opacity:1;fill-rule:nonzero;stroke:none"
         d="m 13511.3,6280.4 h 153.5 v 934.398 h -153.5 z" /><path
         id="path248"
         style="fill:#93d8e0;fill-opacity:1;fill-rule:nonzero;stroke:none"
         d="m 12122,6399.8 h 153.5 v 695.602 H 12122 Z" /><path
         id="path250"
         style="fill:#93d8e0;fill-opacity:1;fill-rule:nonzero;stroke:none"
         d="m 12398.5,6280.4 h 153.5 v 934.398 h -153.5 z" /><g
         transform="scale(1.37618)"
         id="g252"><path
           id="path254"
           style="fill:#50bfa5;fill-opacity:1;fill-rule:nonzero;stroke:none"
           d="m 16232.6,7688.9 -911.5,-322.69 c -44.2,-15.65 -92.7,7.5 -108.4,51.7 l -206.6,583.51 c -15.6,44.2 7.6,92.71 51.8,108.36 l 911.5,322.69 c 44.2,15.65 92.7,-7.5 108.4,-51.69 l 206.5,-583.52 c 15.7,-44.2 -7.5,-92.71 -51.7,-108.36" /></g><g
         transform="scale(1.2923)"
         id="g256"><path
           id="path258"
           style="fill:#50bfa5;fill-opacity:1;fill-rule:nonzero;stroke:none"
           d="m 16123.7,8226.31 -214,-468.88 390.3,229.92 -176.3,238.96" /></g><g
         transform="scale(1.3471)"
         id="g260"><path
           id="path262"
           style="fill:#ffffff;fill-opacity:1;fill-rule:nonzero;stroke:none"
           d="m 15744.5,8044.88 97.3,37.26 c 0,0 90.2,136.96 82.1,170.92 -8.1,33.95 -53.3,95.57 -37.3,111.18 16,15.59 54.1,37.14 95.4,3.28 29.9,-24.58 55.9,-144.52 70.2,-148 8.9,-2.17 65.5,17.67 106.5,32.83 27.1,9.97 57.3,4.11 78.7,-15.21 l 0.1,-0.05 c 14.4,-13.06 17.7,-34.43 7.9,-51.26 l -15.2,-26.2 25.5,-16.61 c 19,-12.37 24.4,-37.74 12.2,-56.79 l -12.5,-19.41 16.6,-9.17 c 21.5,-11.82 28,-39.69 13.9,-59.77 l -11.4,-16.3 3.8,-3.41 c 16,-14.17 18.5,-38.21 5.7,-55.35 l -11.7,-15.78 -259.2,-99.23 c -24.3,-9.3 -50.3,-13.53 -76.2,-12.44 l -97,-19.82 c -10.4,-2.13 -20.9,3.69 -24.5,13.67 l -83.4,228.21 c -4,11.03 1.6,23.25 12.5,27.45" /></g><path
         id="path264"
         style="fill:#c0ecff;fill-opacity:1;fill-rule:nonzero;stroke:none"
         d="m 4921.55,12654.3 h -2429.4 c -118.48,0 -214.52,-96.3 -214.52,-215.2 v -1420.2 c 0,-118.9 96.04,-215.3 214.52,-215.3 h 1699.89 c 109.28,-153 307.42,-427 324.91,-427 16.37,0 -15.15,258.8 -37.38,427 h 441.98 c 118.47,0 214.52,96.4 214.52,215.3 v 1420.2 c 0,118.9 -96.05,215.2 -214.52,215.2" /><path
         id="path266"
         style="fill:#f47458;fill-opacity:1;fill-rule:nonzero;stroke:none"
         d="m 6354.81,14352.6 h 3067.06 c 162.01,0 293.34,-131.8 293.34,-294.4 v -1942.1 c 0,-162.6 -131.33,-294.3 -293.34,-294.3 H 7352.42 c -149.44,-209.3 -420.4,-584 -444.31,-584 -22.4,0 20.71,353.9 51.1,584 h -604.4 c -162.01,0 -293.34,131.7 -293.34,294.3 v 1942.1 c 0,162.6 131.33,294.4 293.34,294.4" /><path
         id="path268"
         style="fill:#ffffff;fill-opacity:1;fill-rule:nonzero;stroke:none"
         d="M 9373.82,13354.2 H 7882.71 c -4.99,0 -9.04,-4.1 -9.04,-9.1 v -114.9 c 0,-5 4.05,-9 9.04,-9 h 726.94 37.23 726.94 c 4.99,0 9.04,4 9.04,9 v 114.9 c 0,5 -4.05,9.1 -9.04,9.1" /><path
         id="path270"
         style="fill:#ffffff;fill-opacity:1;fill-rule:nonzero;stroke:none"
         d="m 6407.7,13221.2 h 1244.12 c 4.73,0 8.57,3.8 8.57,8.5 v 115.9 c 0,4.8 -3.84,8.6 -8.57,8.6 H 6407.7 c -4.74,0 -8.58,-3.8 -8.58,-8.6 v -115.9 c 0,-4.7 3.84,-8.5 8.58,-8.5" /><path
         id="path272"
         style="fill:#ffffff;fill-opacity:1;fill-rule:nonzero;stroke:none"
         d="m 6402.39,13655.6 h 1658.2 c 4.73,0 8.57,3.9 8.57,8.6 v 115.9 c 0,4.7 -3.84,8.5 -8.58,8.5 H 6402.39 c -4.73,0 -8.57,-3.8 -8.57,-8.5 v -115.9 c 0,-4.7 3.84,-8.6 8.57,-8.6" /><path
         id="path274"
         style="fill:#ffffff;fill-opacity:1;fill-rule:nonzero;stroke:none"
         d="m 8361.25,13655.6 h 1013.04 c 4.73,0 8.57,3.9 8.57,8.6 v 115.9 c 0,4.7 -3.84,8.5 -8.57,8.5 H 8361.25 c -4.73,0 -8.56,-3.8 -8.56,-8.5 v -115.9 c 0,-4.7 3.83,-8.6 8.56,-8.6" /><path
         id="path276"
         style="fill:#ffffff;fill-opacity:1;fill-rule:nonzero;stroke:none"
         d="m 6393.82,12370.2 h 2989.04 v 133.1 H 6393.82 v -133.1" /><path
         id="path278"
         style="fill:#ffffff;fill-opacity:1;fill-rule:nonzero;stroke:none"
         d="m 7961.35,12790.7 h 1421.51 v 133 H 7961.35 v -133" /><path
         id="path280"
         style="fill:#ffffff;fill-opacity:1;fill-rule:nonzero;stroke:none"
         d="m 6399.12,12790.7 h 1421.51 v 133 H 6399.12 v -133" /><path
         id="path282"
         style="fill:#adaeb5;fill-opacity:1;fill-rule:nonzero;stroke:none"
         d="m 3540.88,11466.7 c 0,-62.3 81.62,-112.9 182.31,-112.9 100.7,0 182.32,50.6 182.32,112.9 0,62.4 -81.62,112.9 -182.32,112.9 -100.69,0 -182.31,-50.5 -182.31,-112.9" /><path
         id="path284"
         style="fill:#f7cc7f;fill-opacity:1;fill-rule:nonzero;stroke:none"
         d="m 3723.2,13865.8 c 453.96,0 821.98,-368 821.98,-822 0,-248 -109.88,-470.4 -283.6,-621.1 -0.61,-0.6 -128.4,-138.8 -149.48,-283.4 l -3.82,-88.6 c -1.26,-29 -12.65,-56.7 -32.19,-78.2 -1.73,-1.9 -3.54,-3.7 -5.37,-5.5 h -695.05 c -1.83,1.8 -3.63,3.6 -5.36,5.5 -19.55,21.5 -30.94,49.2 -32.2,78.2 l -3.82,88.6 c -21.07,144.6 -148.88,282.8 -149.48,283.4 -173.72,150.7 -283.6,373.1 -283.6,621.1 0,454 368.02,822 821.99,822" /><path
         id="path286"
         style="fill:#544c60;fill-opacity:1;fill-rule:nonzero;stroke:none"
         d="m 3466.41,11454.1 h 513.57 c 51.07,0 92.48,41.4 92.48,92.5 v 420.4 h -698.53 v -420.4 c 0,-51.1 41.41,-92.5 92.48,-92.5" /><path
         id="path288"
         style="fill:#f9e7cb;fill-opacity:1;fill-rule:nonzero;stroke:none"
         d="m 4545.18,13045.4 c 0,0.1 0,0.3 0,0.4 0,-0.1 0,-0.3 0,-0.4 m -0.01,1.5 c 0,0.2 0,0.4 0,0.5 0,-0.1 0,-0.3 0,-0.5 m -0.01,1.6 c 0,0.2 0,0.3 0,0.5 0,-0.2 0,-0.3 0,-0.5 m -0.01,2 c 0,0.1 0,0.2 0,0.2 0,0 0,-0.1 0,-0.2 m -0.01,1.6 c 0,0.1 -0.01,0.3 -0.01,0.4 0,-0.1 0.01,-0.3 0.01,-0.4 m -0.02,1.5 c 0,0.2 0,0.3 0,0.5 0,-0.2 0,-0.3 0,-0.5 m -0.02,1.7 c 0,0.1 0,0.3 -0.01,0.3 0.01,-0.1 0.01,-0.2 0.01,-0.3 m -0.03,1.9 c 0,0.1 0,0.2 0,0.2 0,0 0,-0.1 0,-0.2 m -0.02,1.5 c -0.01,0.2 -0.01,0.3 -0.01,0.5 0,-0.2 0,-0.3 0.01,-0.5 m -0.03,1.6 c -0.01,0.1 -0.01,0.3 -0.01,0.5 0,-0.2 0,-0.3 0.01,-0.5 m -0.04,1.8 c 0,0 0,0.1 -0.01,0.2 0.01,-0.1 0.01,-0.1 0.01,-0.2 m -0.04,1.8 c 0,0 -0.01,0.1 -0.01,0.2 0,-0.1 0.01,-0.2 0.01,-0.2 m -0.04,1.5 c 0,0.2 -0.01,0.3 -0.01,0.4 0,-0.1 0.01,-0.2 0.01,-0.4 m -0.04,1.6 c -0.01,0.1 -0.01,0.3 -0.01,0.4 0,-0.1 0,-0.3 0.01,-0.4 m -0.06,1.8 c 0,0.1 0,0.1 0,0.1 0,0 0,0 0,-0.1 m -0.05,1.7 c 0,0.1 0,0.2 -0.01,0.3 0.01,-0.1 0.01,-0.2 0.01,-0.3 m -0.05,1.6 c 0,0.1 -0.01,0.2 -0.01,0.3 0,-0.1 0.01,-0.2 0.01,-0.3 m -0.06,1.7 c 0,0 0,0.1 -0.01,0.2 0.01,-0.1 0.01,-0.2 0.01,-0.2 m -0.13,3.4 c 0,0 0,0.1 0,0.2 0,-0.1 0,-0.2 0,-0.2 m -0.06,1.6 c -0.01,0.1 -0.01,0.1 -0.01,0.2 0,-0.1 0,-0.1 0.01,-0.2 m -0.23,5.1 v 0 0" /><path
         id="path290"
         style="fill:#f3c472;fill-opacity:1;fill-rule:nonzero;stroke:none"
         d="m 4070.72,11967 h -695.05 c -1.83,1.8 -3.63,3.6 -5.36,5.5 -19.55,21.5 -30.94,49.2 -32.2,78.2 l -3.82,88.6 c -21.07,144.6 -148.88,282.8 -149.48,283.4 v 0 c -43.95,38.1 -83.8,80.9 -118.82,127.4 129.53,-85.1 284.54,-134.7 451.15,-134.7 454.22,0 822.44,368.2 822.44,822.4 0,184.4 -60.7,354.7 -163.22,491.9 211.81,-140.3 354.91,-376 367.86,-645.8 v 0 c 0.08,-1.7 0.15,-3.3 0.22,-4.9 0,-0.1 0,-0.1 0.01,-0.2 0.02,-0.5 0.04,-0.9 0.06,-1.4 0,-0.1 0,-0.2 0,-0.2 0.05,-1.1 0.09,-2.1 0.12,-3.2 0.01,-0.1 0.01,-0.2 0.01,-0.2 0.02,-0.5 0.03,-0.9 0.05,-1.4 0,-0.1 0.01,-0.2 0.01,-0.3 0.02,-0.5 0.03,-0.9 0.04,-1.3 0.01,-0.1 0.01,-0.2 0.01,-0.3 0.02,-0.5 0.04,-1 0.05,-1.6 0,0 0,0 0,-0.1 0.02,-0.4 0.03,-0.9 0.05,-1.4 0,-0.1 0,-0.3 0.01,-0.4 0.01,-0.4 0.02,-0.8 0.03,-1.2 0,-0.1 0.01,-0.2 0.01,-0.4 0.01,-0.4 0.02,-0.9 0.03,-1.3 0,-0.1 0.01,-0.2 0.01,-0.2 0.01,-0.6 0.02,-1.1 0.03,-1.6 0.01,-0.1 0.01,-0.2 0.01,-0.2 0.01,-0.4 0.02,-0.9 0.03,-1.3 0,-0.2 0,-0.4 0.01,-0.5 0,-0.4 0.01,-0.8 0.02,-1.1 0,-0.2 0,-0.3 0.01,-0.5 0,-0.4 0.01,-0.8 0.02,-1.3 0,0 0,-0.1 0,-0.2 0.01,-0.5 0.02,-1 0.02,-1.6 0.01,0 0.01,-0.2 0.01,-0.3 0,-0.4 0.01,-0.8 0.02,-1.2 0,-0.2 0,-0.3 0,-0.5 0,-0.4 0.01,-0.7 0.01,-1.1 0,-0.1 0.01,-0.3 0.01,-0.4 0,-0.5 0.01,-0.9 0.01,-1.4 0,0 0,-0.1 0,-0.2 0.01,-0.5 0.01,-1 0.01,-1.5 0,-0.2 0,-0.3 0,-0.5 0.01,-0.3 0.01,-0.7 0.01,-1.1 0,-0.1 0,-0.3 0,-0.5 0,-0.4 0,-0.7 0.01,-1.1 0,-0.1 0,-0.3 0,-0.4 0,-0.5 0,-1.1 0,-1.6 0,-248 -109.88,-470.4 -283.6,-621.1 -0.61,-0.6 -128.4,-138.8 -149.48,-283.4 l -3.82,-88.6 c -1.26,-29 -12.65,-56.7 -32.19,-78.2 -1.73,-1.9 -3.54,-3.7 -5.37,-5.5" /><path
         id="path292"
         style="fill:#ffffff;fill-opacity:1;fill-rule:nonzero;stroke:none"
         d="m 3728.98,12645.2 163.32,712.4 143.34,-414.4 42.04,14.6 -194.07,560.9 -166.64,-726.8 -170.69,416.6 -158.1,-266.9 38.28,-22.7 112.53,190 189.99,-463.7" /><path
         id="path294"
         style="fill:#544c60;fill-opacity:1;fill-rule:nonzero;stroke:none"
         d="m 3934.84,11859.9 3.92,-0.4 c 20.64,-2.1 39.1,12.9 41.24,33.5 l 114.22,1103 c 2.14,20.6 -12.86,39.1 -33.5,41.2 l -3.92,0.4 c -20.64,2.2 -39.1,-12.8 -41.23,-33.5 l -114.23,-1103 c -2.14,-20.6 12.86,-39.1 33.5,-41.2" /><path
         id="path296"
         style="fill:#544c60;fill-opacity:1;fill-rule:nonzero;stroke:none"
         d="m 3509.15,11859.7 v 0 c -21.72,-2.3 -41.15,13.5 -43.4,35.3 l -113.82,1099 c -2.25,21.8 13.54,41.2 35.26,43.4 21.72,2.3 41.15,-13.5 43.4,-35.2 l 113.82,-1099.1 c 2.25,-21.7 -13.54,-41.2 -35.26,-43.4" /><path
         id="path298"
         style="fill:#adaeb5;fill-opacity:1;fill-rule:nonzero;stroke:none"
         d="m 3354.29,11889.7 h 737.37 c 5.65,0 10.23,4.6 10.23,10.2 v 56.9 c 0,5.6 -4.58,10.2 -10.23,10.2 h -737.37 c -5.65,0 -10.24,-4.6 -10.24,-10.2 v -56.9 c 0,-5.6 4.59,-10.2 10.24,-10.2" /><path
         id="path300"
         style="fill:#adaeb5;fill-opacity:1;fill-rule:nonzero;stroke:none"
         d="m 3354.29,11734.7 h 737.37 c 5.65,0 10.23,4.5 10.23,10.2 v 56.8 c 0,5.7 -4.58,10.3 -10.23,10.3 h -737.37 c -5.65,0 -10.24,-4.6 -10.24,-10.3 v -56.8 c 0,-5.7 4.59,-10.2 10.24,-10.2" /><path
         id="path302"
         style="fill:#adaeb5;fill-opacity:1;fill-rule:nonzero;stroke:none"
         d="m 3354.29,11561.2 h 737.37 c 5.65,0 10.23,4.6 10.23,10.2 v 56.9 c 0,5.6 -4.58,10.2 -10.23,10.2 h -737.37 c -5.65,0 -10.24,-4.6 -10.24,-10.2 v -56.9 c 0,-5.6 4.59,-10.2 10.24,-10.2" /><g
         transform="scale(1.53907)"
         id="g304"><path
           id="path306"
           style="fill:#f7cc7f;fill-opacity:1;fill-rule:nonzero;stroke:none"
           d="M 16300,786.837 H 1695.63 v 59.972 H 16300 v -59.972" /></g></g></g></svg>